<svg width="126" height="28" viewBox="0 0 126 28" fill="none" xmlns="http://www.w3.org/2000/svg">
<path d="M38.17 20.42H33.43L32.29 23.78H30.28L34.77 11.35H36.85L41.34 23.78H39.3L38.17 20.42ZM33.92 18.87H37.68L35.83 13.42H35.78L33.92 18.87Z" fill="white"/>
<path d="M51.03 19.25C51.03 22.07 49.52 23.88 47.25 23.88C45.96 23.88 44.93 23.3 44.4 22.3H44.36V26.79H42.5V14.72H44.3V16.23H44.33C44.85 15.26 45.95 14.63 47.22 14.63C49.51 14.62 51.03 16.44 51.03 19.25ZM49.11 19.25C49.11 17.42 48.16 16.21 46.72 16.21C45.3 16.21 44.34 17.44 44.34 19.25C44.34 21.08 45.3 22.3 46.72 22.3C48.17 22.3 49.11 21.1 49.11 19.25Z" fill="white"/>
<path d="M60.99 19.25C60.99 22.07 59.48 23.88 57.21 23.88C55.92 23.88 54.89 23.3 54.36 22.3H54.32V26.79H52.46V14.72H54.26V16.23H54.29C54.81 15.26 55.91 14.63 57.18 14.63C59.47 14.62 60.99 16.44 60.99 19.25ZM59.08 19.25C59.08 17.42 58.13 16.21 56.69 16.21C55.27 16.21 54.31 17.44 54.31 19.25C54.31 21.08 55.27 22.3 56.69 22.3C58.13 22.3 59.08 21.1 59.08 19.25Z" fill="white"/>
<path d="M62.4901 11.35H64.35V23.78H62.4901V11.35Z" fill="white"/>
<path d="M74.03 21.12C73.78 22.76 72.18 23.89 70.13 23.89C67.49 23.89 65.86 22.12 65.86 19.29C65.86 16.45 67.51 14.6 70.05 14.6C72.56 14.6 74.13 16.32 74.13 19.07V19.71H67.73V19.82C67.73 21.37 68.7 22.39 70.17 22.39C71.2 22.39 72.01 21.9 72.26 21.12H74.03ZM67.74 18.41H72.27C72.23 17.02 71.34 16.11 70.05 16.11C68.77 16.11 67.84 17.04 67.74 18.41Z" fill="white"/>
<path d="M90.18 23.78V14.63H90.12L86.37 23.68H84.94L81.18 14.63H81.12V23.78H79.36V11.35H81.59L85.61 21.16H85.68L89.69 11.35H91.93V23.78H90.18Z" fill="white"/>
<path d="M101.85 23.78H100.07V22.22H100.03C99.51 23.31 98.61 23.88 97.22 23.88C95.25 23.88 94.04 22.61 94.04 20.53V14.72H95.9V20.17C95.9 21.55 96.55 22.28 97.84 22.28C99.18 22.28 99.99 21.35 99.99 19.94V14.72H101.85V23.78Z" fill="white"/>
<path d="M107.14 14.62C109.15 14.62 110.59 15.73 110.63 17.33H108.88C108.8 16.53 108.12 16.04 107.09 16.04C106.08 16.04 105.41 16.51 105.41 17.21C105.41 17.75 105.86 18.11 106.8 18.35L108.32 18.7C110.15 19.14 110.83 19.81 110.83 21.14C110.83 22.78 109.28 23.9 107.07 23.9C104.93 23.9 103.5 22.81 103.36 21.15H105.2C105.33 22.02 106.03 22.49 107.16 22.49C108.27 22.49 108.97 22.03 108.97 21.31C108.97 20.75 108.63 20.45 107.68 20.21L106.06 19.81C104.42 19.41 103.6 18.58 103.6 17.32C103.59 15.71 105.03 14.62 107.14 14.62Z" fill="white"/>
<path d="M112.28 12.33C112.28 11.74 112.76 11.26 113.36 11.26C113.96 11.26 114.45 11.73 114.45 12.33C114.45 12.92 113.97 13.39 113.36 13.39C112.77 13.39 112.28 12.92 112.28 12.33ZM112.43 14.72H114.29V23.78H112.43V14.72Z" fill="white"/>
<path d="M122.3 17.84C122.14 16.88 121.39 16.17 120.16 16.17C118.73 16.17 117.78 17.37 117.78 19.25C117.78 21.18 118.74 22.34 120.17 22.34C121.32 22.34 122.08 21.76 122.29 20.71H124.08C123.87 22.61 122.35 23.89 120.15 23.89C117.57 23.89 115.88 22.12 115.88 19.25C115.88 16.43 117.57 14.61 120.13 14.61C122.46 14.61 123.9 16.07 124.06 17.84H122.3Z" fill="white"/>
<path d="M34.65 7.5401H30.87V1.4801H31.81V6.6701H34.65V7.5401Z" fill="white"/>
<path d="M35.74 1.61006C35.74 1.30006 35.99 1.06006 36.32 1.06006C36.66 1.06006 36.9 1.30006 36.9 1.61006C36.9 1.92006 36.65 2.16006 36.32 2.16006C35.99 2.16006 35.74 1.93006 35.74 1.61006ZM35.88 2.97006H36.78V7.54006H35.88V2.97006Z" fill="white"/>
<path d="M39.9 2.88C40.93 2.88 41.6 3.36 41.69 4.16H40.83C40.75 3.82 40.42 3.61 39.91 3.61C39.41 3.61 39.03 3.85 39.03 4.21C39.03 4.48 39.26 4.66 39.76 4.77L40.52 4.95C41.39 5.15 41.8 5.53 41.8 6.2C41.8 7.06 41 7.64 39.91 7.64C38.82 7.64 38.11 7.15 38.03 6.34H38.93C39.04 6.69 39.38 6.91 39.93 6.91C40.49 6.91 40.89 6.66 40.89 6.29C40.89 6.02 40.68 5.84 40.22 5.73L39.42 5.55C38.55 5.34 38.15 4.95 38.15 4.27C38.12 3.45 38.86 2.88 39.9 2.88Z" fill="white"/>
<path d="M44.17 1.83008V2.99008H45.16V3.75008H44.17V6.10008C44.17 6.58008 44.37 6.79008 44.82 6.79008C44.96 6.79008 45.04 6.78008 45.16 6.77008V7.52008C45.01 7.55008 44.84 7.57008 44.67 7.57008C43.67 7.57008 43.27 7.22008 43.27 6.34008V3.75008H42.54V2.99008H43.27V1.83008H44.17Z" fill="white"/>
<path d="M50.16 6.30012C49.95 7.12012 49.22 7.62012 48.18 7.62012C46.87 7.62012 46.07 6.72012 46.07 5.26012C46.07 3.80012 46.89 2.87012 48.18 2.87012C49.45 2.87012 50.22 3.74012 50.22 5.17012V5.50012H46.99V5.55012C47.02 6.35012 47.49 6.86012 48.21 6.86012C48.76 6.86012 49.13 6.66012 49.3 6.31012L50.16 6.30012ZM46.99 4.83012H49.3C49.28 4.11012 48.84 3.65012 48.18 3.65012C47.52 3.65012 47.04 4.12012 46.99 4.83012Z" fill="white"/>
<path d="M51.42 2.97001H52.29V3.70001H52.36C52.58 3.19001 53.03 2.89001 53.72 2.89001C54.74 2.89001 55.3 3.50001 55.3 4.59001V7.55001H54.4V4.80001C54.4 4.07001 54.08 3.70001 53.41 3.70001C52.74 3.70001 52.32 4.14001 52.32 4.86001V7.53001H51.42V2.97001Z" fill="white"/>
<path d="M58.94 5.25C58.94 3.78 59.76 2.88 61.1 2.88C62.43 2.88 63.25 3.78 63.25 5.25C63.25 6.73 62.43 7.63 61.1 7.63C59.76 7.62 58.94 6.73 58.94 5.25ZM62.32 5.25C62.32 4.26 61.87 3.68 61.09 3.68C60.3 3.68 59.86 4.26 59.86 5.25C59.86 6.25 60.3 6.82 61.09 6.82C61.88 6.82 62.32 6.24 62.32 5.25Z" fill="white"/>
<path d="M64.46 2.97001H65.33V3.70001H65.4C65.62 3.19001 66.07 2.89001 66.76 2.89001C67.78 2.89001 68.34 3.50001 68.34 4.59001V7.55001H67.44V4.80001C67.44 4.07001 67.12 3.70001 66.45 3.70001C65.78 3.70001 65.36 4.14001 65.36 4.86001V7.53001H64.46V2.97001Z" fill="white"/>
<path fill-rule="evenodd" clip-rule="evenodd" d="M25.16 7.87C25.16 7.57 25.16 7.27 25.16 6.97C25.16 6.72 25.16 6.46 25.15 6.21C25.14 5.66 25.1 5.1 25 4.56C24.9 4.01 24.74 3.49 24.48 2.99C24.23 2.5 23.9 2.04 23.51 1.65C23.12 1.26 22.67 0.93 22.17 0.68C21.67 0.42 21.15 0.26 20.6 0.16C20.05 0.06 19.5 0.03 18.95 0.01C18.7 0.01 18.45 0 18.19 0C17.89 0 17.59 0 17.29 0H7.87C7.57 0 7.27 0 6.97 0C6.72 0 6.46 0 6.21 0.01C5.66 0.03 5.1 0.06 4.56 0.16C4 0.26 3.49 0.42 2.99 0.68C2.49 0.93 2.04 1.26 1.65 1.65C1.26 2.04 0.93 2.49 0.68 2.99C0.42 3.49 0.26 4 0.16 4.56C0.06 5.11 0.03 5.66 0.01 6.21C0.01 6.46 0 6.72 0 6.97C0 7.27 0 7.57 0 7.87V17.29C0 17.59 0 17.89 0 18.19C0 18.44 0 18.7 0.01 18.95C0.02 19.5 0.06 20.06 0.16 20.6C0.26 21.15 0.42 21.67 0.68 22.17C0.93 22.66 1.26 23.12 1.65 23.51C2.04 23.9 2.49 24.23 2.99 24.48C3.49 24.74 4 24.91 4.56 25C5.11 25.1 5.66 25.13 6.21 25.15C6.46 25.16 6.72 25.16 6.97 25.16C7.27 25.16 7.57 25.16 7.87 25.16H17.29C17.59 25.16 17.89 25.16 18.19 25.16C18.44 25.16 18.7 25.16 18.95 25.15C19.5 25.14 20.06 25.1 20.6 25C21.15 24.9 21.67 24.74 22.17 24.48C22.66 24.23 23.12 23.9 23.51 23.51C23.9 23.12 24.23 22.67 24.48 22.17C24.74 21.67 24.9 21.15 25 20.6C25.1 20.05 25.13 19.5 25.15 18.95C25.16 18.7 25.16 18.44 25.16 18.19C25.16 17.89 25.16 17.59 25.16 17.29V7.87Z" fill="url(#paint0_linear_6_2)"/>
<path fill-rule="evenodd" clip-rule="evenodd" d="M17.79 3.83999C17.73 3.84999 17.19 3.93999 17.12 3.94999L9.63998 5.46999C9.43998 5.50999 9.28998 5.57999 9.16998 5.67999C9.02998 5.79999 8.94998 5.96999 8.91998 6.15999C8.91998 6.20999 8.90998 6.28999 8.90998 6.41999C8.90998 6.41999 8.90998 14.06 8.90998 15.78C8.90998 16 8.88998 16.21 8.73998 16.39C8.58998 16.57 8.40998 16.63 8.18998 16.67C8.02998 16.7 7.85998 16.74 7.69998 16.77C7.07998 16.89 6.67998 16.98 6.31998 17.12C5.96998 17.26 5.70998 17.43 5.49998 17.64C5.08998 18.07 4.91998 18.66 4.97998 19.2C5.02998 19.67 5.23998 20.11 5.59998 20.45C5.83998 20.67 6.14998 20.84 6.50998 20.92C6.87998 21 7.27998 20.97 7.85998 20.85C8.16998 20.79 8.45998 20.69 8.72998 20.53C8.99998 20.37 9.23998 20.15 9.41998 19.89C9.59998 19.63 9.71998 19.34 9.78998 19.03C9.85998 18.71 9.86998 18.42 9.86998 18.1V9.97999C9.86998 9.53999 9.98998 9.42999 10.34 9.34999C10.34 9.34999 16.56 8.09999 16.85 8.03999C17.25 7.95999 17.45 8.07999 17.45 8.49999V14.04C17.45 14.26 17.45 14.48 17.3 14.66C17.15 14.84 16.97 14.9 16.75 14.94C16.59 14.97 16.42 15.01 16.26 15.04C15.64 15.16 15.24 15.25 14.88 15.39C14.53 15.53 14.27 15.7 14.06 15.91C13.65 16.34 13.47 16.93 13.52 17.47C13.57 17.94 13.79 18.38 14.16 18.72C14.4 18.94 14.71 19.11 15.07 19.18C15.44 19.26 15.84 19.23 16.42 19.11C16.73 19.05 17.02 18.96 17.29 18.79C17.56 18.63 17.8 18.41 17.98 18.15C18.16 17.89 18.28 17.6 18.35 17.29C18.42 16.97 18.42 16.68 18.42 16.36V4.50999C18.42 4.06999 18.19 3.80999 17.79 3.83999Z" fill="white"/>
<defs>
<linearGradient id="paint0_linear_6_2" x1="12.58" y1="25.0658" x2="12.58" y2="0.542399" gradientUnits="userSpaceOnUse">
<stop stop-color="#FA233B"/>
<stop offset="1" stop-color="#FB5C74"/>
</linearGradient>
</defs>
</svg>
