<svg width="220" height="220" viewBox="0 0 220 220" fill="none" xmlns="http://www.w3.org/2000/svg">
<path d="M114.52 0.310019C54.14 -2.08998 3.25999 44.91 0.859989 105.29C-1.54001 165.67 45.47 216.55 105.84 218.95C166.22 221.35 217.1 174.35 219.5 113.97C221.89 53.59 174.89 2.70002 114.52 0.310019ZM160.7 160.59C159.34 162.99 156.69 164.19 154.11 163.83C153.32 163.72 152.53 163.46 151.79 163.04C137.33 154.81 121.57 149.45 104.95 147.11C88.33 144.77 71.7 145.58 55.53 149.51C52.02 150.36 48.49 148.21 47.64 144.7C46.79 141.19 48.94 137.66 52.45 136.81C70.23 132.49 88.51 131.6 106.77 134.17C125.03 136.74 142.35 142.63 158.26 151.68C161.39 153.47 162.49 157.45 160.71 160.59H160.7ZM175.08 131.87C172.85 135.99 167.69 137.53 163.57 135.3C146.65 126.15 128.33 120.14 109.12 117.44C89.91 114.74 70.65 115.47 51.86 119.6C50.84 119.82 49.83 119.86 48.85 119.72C45.44 119.24 42.52 116.7 41.74 113.13C40.73 108.55 43.63 104.02 48.21 103.01C68.98 98.44 90.27 97.63 111.49 100.61C132.7 103.59 152.95 110.23 171.65 120.35C175.78 122.58 177.31 127.73 175.08 131.86V131.87ZM191.02 99.49C188.92 103.53 184.55 105.62 180.29 105.02C179.14 104.86 178.01 104.5 176.92 103.94C157.22 93.69 136 86.92 113.85 83.81C91.7 80.7 69.43 81.36 47.67 85.78C42.01 86.93 36.5 83.27 35.35 77.62C34.2 71.96 37.86 66.45 43.51 65.3C67.61 60.41 92.25 59.68 116.76 63.12C141.27 66.56 164.75 74.06 186.57 85.41C191.69 88.07 193.68 94.38 191.02 99.5V99.49Z" fill="#00CE7C"/>
</svg>
