<svg width="509" height="114" viewBox="0 0 509 114" fill="none" xmlns="http://www.w3.org/2000/svg">
<path d="M159.328 18.0908C157.465 11.1215 151.976 5.6335 145.007 3.77083C132.375 0.385497 81.7228 0.385495 81.7228 0.385495C81.7228 0.385495 31.0708 0.385497 18.4388 3.77083C11.4695 5.6335 5.98013 11.1215 4.11746 18.0908C0.733462 30.7228 0.733459 57.0788 0.733459 57.0788C0.733459 57.0788 0.733462 83.4348 4.11746 96.0655C5.98013 103.035 11.4695 108.524 18.4388 110.387C31.0708 113.772 81.7228 113.772 81.7228 113.772C81.7228 113.772 132.375 113.772 145.007 110.387C151.976 108.524 157.465 103.035 159.328 96.0655C162.713 83.4348 162.713 57.0788 162.713 57.0788C162.713 57.0788 162.713 30.7228 159.328 18.0908Z" fill="#FF0000"/>
<path d="M65.5247 81.376L107.607 57.0787L65.5247 32.7814V81.376Z" fill="white"/>
<path d="M253.801 92.4163C254.688 90.1016 255.133 86.3176 255.133 81.0656V58.9403C255.133 53.8443 254.688 50.1189 253.801 47.7629C252.912 45.4083 251.348 44.2296 249.109 44.2296C246.947 44.2296 245.421 45.4083 244.535 47.7629C243.645 50.1189 243.203 53.8443 243.203 58.9403V81.0656C243.203 86.3176 243.625 90.1016 244.476 92.4163C245.325 94.7336 246.869 95.8909 249.109 95.8909C251.348 95.8909 252.912 94.7336 253.801 92.4163ZM235.847 103.538C232.641 101.378 230.363 98.0163 229.013 93.4589C227.661 88.9043 226.985 82.8416 226.985 75.2736V64.9643C226.985 57.3189 227.756 51.1789 229.303 46.5469C230.845 41.9136 233.259 38.5349 236.541 36.4109C239.823 34.2883 244.129 33.2256 249.457 33.2256C254.708 33.2256 258.916 34.3069 262.083 36.4696C265.249 38.6309 267.565 42.0109 269.033 46.6043C270.499 51.1989 271.235 57.3189 271.235 64.9643V75.2736C271.235 82.8416 270.52 88.9243 269.092 93.5176C267.663 98.1123 265.345 101.472 262.141 103.595C258.936 105.719 254.592 106.78 249.109 106.78C243.472 106.78 239.051 105.699 235.847 103.538Z" fill="#282828"/>
<path d="M483.901 45.5569C483.092 46.5609 482.549 48.2023 482.28 50.4796C482.008 52.7583 481.874 56.2129 481.874 60.8463V65.9436H493.573V60.8463C493.573 56.2916 493.418 52.8356 493.11 50.4796C492.801 48.1249 492.242 46.4649 491.43 45.4996C490.62 44.5329 489.365 44.0503 487.666 44.0503C485.966 44.0503 484.712 44.5543 483.901 45.5569ZM481.874 75.4423V79.0329C481.874 83.5903 482.008 87.0076 482.28 89.2849C482.549 91.5636 483.108 93.2236 483.96 94.2663C484.809 95.3076 486.12 95.8303 487.898 95.8303C490.29 95.8303 491.932 94.9036 492.82 93.0489C493.706 91.1956 494.19 88.1076 494.268 83.7823L508.053 84.5929C508.13 85.2129 508.169 86.0623 508.169 87.1409C508.169 93.7063 506.373 98.6103 502.782 101.854C499.193 105.096 494.113 106.718 487.55 106.718C479.674 106.718 474.152 104.249 470.985 99.3049C467.817 94.3636 466.236 86.7183 466.236 76.3689V63.9743C466.236 53.3169 467.876 45.5383 471.16 40.6329C474.441 35.7303 480.06 33.2783 488.014 33.2783C493.496 33.2783 497.705 34.2823 500.64 36.2889C503.573 38.2983 505.64 41.4263 506.837 45.6716C508.034 49.9196 508.633 55.7903 508.633 63.2796V75.4423H481.874Z" fill="#282828"/>
<path d="M196.922 74.1129L178.735 8.43292H194.605L200.975 38.2036C202.598 45.5409 203.794 51.7956 204.566 56.9689H205.03C205.57 53.2623 206.767 47.0463 208.621 38.3196L215.223 8.43292H231.093L212.675 74.1129V105.622H196.922V74.1129Z" fill="#282828"/>
<path d="M322.848 34.6149V105.622H310.337L308.946 96.9349H308.6C305.201 103.499 300.104 106.78 293.309 106.78C288.598 106.78 285.124 105.236 282.884 102.147C280.644 99.0589 279.525 94.2309 279.525 87.6683V34.6149H295.51V86.7403C295.51 89.9083 295.858 92.1669 296.553 93.5163C297.248 94.8696 298.405 95.5443 300.028 95.5443C301.418 95.5443 302.75 95.1203 304.024 94.2696C305.298 93.4203 306.244 92.3403 306.862 91.0269V34.6149H322.848Z" fill="#282828"/>
<path d="M404.842 34.6149V105.622H392.332L390.941 96.9349H390.594C387.194 103.499 382.098 106.78 375.304 106.78C370.593 106.78 367.118 105.236 364.878 102.147C362.638 99.0589 361.52 94.2309 361.52 87.6683V34.6149H377.505V86.7403C377.505 89.9083 377.852 92.1669 378.546 93.5163C379.242 94.8696 380.4 95.5443 382.022 95.5443C383.413 95.5443 384.745 95.1203 386.018 94.2696C387.293 93.4203 388.237 92.3403 388.857 91.0269V34.6149H404.842Z" fill="#282828"/>
<path d="M366.285 21.2932H350.416V105.623H334.778V21.2932H318.909V8.43457H366.285V21.2932Z" fill="#282828"/>
<path d="M443.095 74.9293C443.095 80.104 442.882 84.1587 442.456 87.092C442.032 90.028 441.318 92.1133 440.314 93.3467C439.31 94.5827 437.956 95.2 436.26 95.2C434.947 95.2 433.731 94.8933 432.612 94.2733C431.491 93.656 430.584 92.7307 429.89 91.4933V51.1827C430.428 49.2533 431.355 47.6693 432.67 46.4333C433.982 45.2 435.408 44.58 436.955 44.58C438.576 44.58 439.831 45.2173 440.72 46.4907C441.607 47.7653 442.226 49.908 442.572 52.9213C442.92 55.932 443.095 60.2173 443.095 65.7773V74.9293ZM457.747 45.9653C456.782 41.488 455.218 38.244 453.056 36.2347C450.894 34.2293 447.919 33.224 444.136 33.224C441.202 33.224 438.46 34.0547 435.912 35.7147C433.364 37.3747 431.395 39.5573 430.006 42.26H429.888L429.89 4.84401H414.483V105.621H427.687L429.31 98.9027H429.658C430.892 101.296 432.744 103.188 435.218 104.579C437.687 105.968 440.43 106.664 443.443 106.664C448.846 106.664 452.824 104.173 455.372 99.192C457.92 94.2107 459.195 86.432 459.195 75.8507V64.616C459.195 56.6627 458.712 50.4453 457.747 45.9653Z" fill="#282828"/>
</svg>
