<svg width="126" height="28" viewBox="0 0 126 28" fill="none" xmlns="http://www.w3.org/2000/svg">
<path d="M38.17 15.16H33.43L32.29 18.52H30.28L34.77 6.08997H36.85L41.34 18.52H39.3L38.17 15.16ZM33.92 13.61H37.68L35.83 8.15997H35.78L33.92 13.61Z" fill="white"/>
<path d="M51.03 13.99C51.03 16.81 49.52 18.62 47.25 18.62C45.96 18.62 44.93 18.04 44.4 17.04H44.36V21.53H42.5V9.46004H44.3V10.97H44.33C44.85 10 45.95 9.37004 47.22 9.37004C49.51 9.36004 51.03 11.18 51.03 13.99ZM49.11 13.99C49.11 12.16 48.16 10.95 46.72 10.95C45.3 10.95 44.34 12.18 44.34 13.99C44.34 15.82 45.3 17.04 46.72 17.04C48.17 17.04 49.11 15.84 49.11 13.99Z" fill="white"/>
<path d="M60.99 13.99C60.99 16.81 59.48 18.62 57.21 18.62C55.92 18.62 54.89 18.04 54.36 17.04H54.32V21.53H52.46V9.46004H54.26V10.97H54.29C54.81 10 55.91 9.37004 57.18 9.37004C59.47 9.36004 60.99 11.18 60.99 13.99ZM59.08 13.99C59.08 12.16 58.13 10.95 56.69 10.95C55.27 10.95 54.31 12.18 54.31 13.99C54.31 15.82 55.27 17.04 56.69 17.04C58.13 17.04 59.08 15.84 59.08 13.99Z" fill="white"/>
<path d="M62.4901 6.08997H64.35V18.52H62.4901V6.08997Z" fill="white"/>
<path d="M74.03 15.86C73.78 17.5 72.18 18.63 70.13 18.63C67.49 18.63 65.86 16.86 65.86 14.03C65.86 11.19 67.51 9.33997 70.05 9.33997C72.56 9.33997 74.13 11.06 74.13 13.81V14.45H67.73V14.56C67.73 16.11 68.7 17.13 70.17 17.13C71.2 17.13 72.01 16.64 72.26 15.86H74.03ZM67.74 13.15H72.27C72.23 11.76 71.34 10.85 70.05 10.85C68.77 10.85 67.84 11.78 67.74 13.15Z" fill="white"/>
<path d="M90.18 18.52V9.36997H90.12L86.37 18.42H84.94L81.18 9.36997H81.12V18.52H79.36V6.08997H81.59L85.61 15.9H85.68L89.69 6.08997H91.93V18.52H90.18Z" fill="white"/>
<path d="M101.85 18.52H100.07V16.96H100.03C99.51 18.05 98.61 18.62 97.22 18.62C95.25 18.62 94.04 17.35 94.04 15.27V9.45996H95.9V14.91C95.9 16.29 96.55 17.02 97.84 17.02C99.18 17.02 99.99 16.09 99.99 14.68V9.45996H101.85V18.52Z" fill="white"/>
<path d="M107.14 9.35999C109.15 9.35999 110.59 10.47 110.63 12.07H108.88C108.8 11.27 108.12 10.78 107.09 10.78C106.08 10.78 105.41 11.25 105.41 11.95C105.41 12.49 105.86 12.85 106.8 13.09L108.32 13.44C110.15 13.88 110.83 14.55 110.83 15.88C110.83 17.52 109.28 18.64 107.07 18.64C104.93 18.64 103.5 17.55 103.36 15.89H105.2C105.33 16.76 106.03 17.23 107.16 17.23C108.27 17.23 108.97 16.77 108.97 16.05C108.97 15.49 108.63 15.19 107.68 14.95L106.06 14.55C104.42 14.15 103.6 13.32 103.6 12.06C103.59 10.45 105.03 9.35999 107.14 9.35999Z" fill="white"/>
<path d="M112.28 7.07C112.28 6.48 112.76 6 113.36 6C113.96 6 114.45 6.47 114.45 7.07C114.45 7.66 113.97 8.13 113.36 8.13C112.77 8.13 112.28 7.66 112.28 7.07ZM112.43 9.46H114.29V18.52H112.43V9.46Z" fill="white"/>
<path d="M122.3 12.58C122.14 11.62 121.39 10.91 120.16 10.91C118.73 10.91 117.78 12.11 117.78 13.99C117.78 15.92 118.74 17.08 120.17 17.08C121.32 17.08 122.08 16.5 122.29 15.45H124.08C123.87 17.35 122.35 18.63 120.15 18.63C117.57 18.63 115.88 16.86 115.88 13.99C115.88 11.17 117.57 9.34998 120.13 9.34998C122.46 9.34998 123.9 10.81 124.06 12.58H122.3Z" fill="white"/>
<path fill-rule="evenodd" clip-rule="evenodd" d="M25.16 8.87C25.16 8.57 25.16 8.27 25.16 7.97C25.16 7.72 25.16 7.46 25.15 7.21C25.14 6.66 25.1 6.1 25 5.56C24.9 5.01 24.74 4.49 24.48 3.99C24.23 3.5 23.9 3.04 23.51 2.65C23.12 2.26 22.67 1.93 22.17 1.68C21.67 1.42 21.15 1.26 20.6 1.16C20.05 1.06 19.5 1.03 18.95 1.01C18.7 1.01 18.45 1 18.19 1C17.89 1 17.59 1 17.29 1H7.87C7.57 1 7.27 1 6.97 1C6.72 1 6.46 1 6.21 1.01C5.66 1.03 5.1 1.06 4.56 1.16C4 1.26 3.49 1.42 2.99 1.68C2.49 1.93 2.04 2.26 1.65 2.65C1.26 3.04 0.93 3.49 0.68 3.99C0.42 4.49 0.26 5 0.16 5.56C0.06 6.11 0.03 6.66 0.01 7.21C0.01 7.46 0 7.72 0 7.97C0 8.27 0 8.57 0 8.87V18.29C0 18.59 0 18.89 0 19.19C0 19.44 0 19.7 0.01 19.95C0.02 20.5 0.06 21.06 0.16 21.6C0.26 22.15 0.42 22.67 0.68 23.17C0.93 23.66 1.26 24.12 1.65 24.51C2.04 24.9 2.49 25.23 2.99 25.48C3.49 25.74 4 25.91 4.56 26C5.11 26.1 5.66 26.13 6.21 26.15C6.46 26.16 6.72 26.16 6.97 26.16C7.27 26.16 7.57 26.16 7.87 26.16H17.29C17.59 26.16 17.89 26.16 18.19 26.16C18.44 26.16 18.7 26.16 18.95 26.15C19.5 26.14 20.06 26.1 20.6 26C21.15 25.9 21.67 25.74 22.17 25.48C22.66 25.23 23.12 24.9 23.51 24.51C23.9 24.12 24.23 23.67 24.48 23.17C24.74 22.67 24.9 22.15 25 21.6C25.1 21.05 25.13 20.5 25.15 19.95C25.16 19.7 25.16 19.44 25.16 19.19C25.16 18.89 25.16 18.59 25.16 18.29V8.87Z" fill="url(#paint0_linear_6_2)"/>
<path fill-rule="evenodd" clip-rule="evenodd" d="M17.79 4.83999C17.73 4.84999 17.19 4.93999 17.12 4.94999L9.63998 6.46999C9.43998 6.50999 9.28998 6.57999 9.16998 6.67999C9.02998 6.79999 8.94998 6.96999 8.91998 7.15999C8.91998 7.20999 8.90998 7.28999 8.90998 7.41999C8.90998 7.41999 8.90998 15.06 8.90998 16.78C8.90998 17 8.88998 17.21 8.73998 17.39C8.58998 17.57 8.40998 17.63 8.18998 17.67C8.02998 17.7 7.85998 17.74 7.69998 17.77C7.07998 17.89 6.67998 17.98 6.31998 18.12C5.96998 18.26 5.70998 18.43 5.49998 18.64C5.08998 19.07 4.91998 19.66 4.97998 20.2C5.02998 20.67 5.23998 21.11 5.59998 21.45C5.83998 21.67 6.14998 21.84 6.50998 21.92C6.87998 22 7.27998 21.97 7.85998 21.85C8.16998 21.79 8.45998 21.69 8.72998 21.53C8.99998 21.37 9.23998 21.15 9.41998 20.89C9.59998 20.63 9.71998 20.34 9.78998 20.03C9.85998 19.71 9.86998 19.42 9.86998 19.1V10.98C9.86998 10.54 9.98998 10.43 10.34 10.35C10.34 10.35 16.56 9.09999 16.85 9.03999C17.25 8.95999 17.45 9.07999 17.45 9.49999V15.04C17.45 15.26 17.45 15.48 17.3 15.66C17.15 15.84 16.97 15.9 16.75 15.94C16.59 15.97 16.42 16.01 16.26 16.04C15.64 16.16 15.24 16.25 14.88 16.39C14.53 16.53 14.27 16.7 14.06 16.91C13.65 17.34 13.47 17.93 13.52 18.47C13.57 18.94 13.79 19.38 14.16 19.72C14.4 19.94 14.71 20.11 15.07 20.18C15.44 20.26 15.84 20.23 16.42 20.11C16.73 20.05 17.02 19.96 17.29 19.79C17.56 19.63 17.8 19.41 17.98 19.15C18.16 18.89 18.28 18.6 18.35 18.29C18.42 17.97 18.42 17.68 18.42 17.36V5.50999C18.42 5.06999 18.19 4.80999 17.79 4.83999Z" fill="white"/>
<defs>
<linearGradient id="paint0_linear_6_2" x1="12.58" y1="26.0658" x2="12.58" y2="1.5424" gradientUnits="userSpaceOnUse">
<stop stop-color="#FA233B"/>
<stop offset="1" stop-color="#FB5C74"/>
</linearGradient>
</defs>
</svg>
