<svg width="26" height="26" viewBox="0 0 26 26" fill="none" xmlns="http://www.w3.org/2000/svg">
<path fill-rule="evenodd" clip-rule="evenodd" d="M25.4265 8.4845C25.4265 8.1845 25.4265 7.8845 25.4265 7.5845C25.4265 7.3345 25.4265 7.0745 25.4165 6.8245C25.4065 6.2745 25.3665 5.7145 25.2665 5.1745C25.1665 4.6245 25.0065 4.1045 24.7465 3.6045C24.4965 3.1145 24.1665 2.6545 23.7765 2.2645C23.3865 1.8745 22.9365 1.5445 22.4365 1.2945C21.9365 1.0345 21.4165 0.874502 20.8665 0.774502C20.3165 0.674502 19.7665 0.644502 19.2165 0.624502C18.9665 0.624502 18.7165 0.614502 18.4565 0.614502C18.1565 0.614502 17.8565 0.614502 17.5565 0.614502H8.13654C7.83654 0.614502 7.53654 0.614502 7.23654 0.614502C6.98654 0.614502 6.72654 0.614502 6.47654 0.624502C5.92654 0.644502 5.36654 0.674502 4.82654 0.774502C4.26654 0.874502 3.75654 1.0345 3.25654 1.2945C2.75654 1.5445 2.30654 1.8745 1.91654 2.2645C1.52654 2.6545 1.19654 3.1045 0.946541 3.6045C0.686541 4.1045 0.526541 4.6145 0.426541 5.1745C0.326541 5.7245 0.296541 6.2745 0.276541 6.8245C0.276541 7.0745 0.266541 7.3345 0.266541 7.5845C0.266541 7.8845 0.266541 8.1845 0.266541 8.4845V17.9045C0.266541 18.2045 0.266541 18.5045 0.266541 18.8045C0.266541 19.0545 0.266541 19.3145 0.276541 19.5645C0.286541 20.1145 0.326541 20.6745 0.426541 21.2145C0.526541 21.7645 0.686541 22.2845 0.946541 22.7845C1.19654 23.2745 1.52654 23.7345 1.91654 24.1245C2.30654 24.5145 2.75654 24.8445 3.25654 25.0945C3.75654 25.3545 4.26654 25.5245 4.82654 25.6145C5.37654 25.7145 5.92654 25.7445 6.47654 25.7645C6.72654 25.7745 6.98654 25.7745 7.23654 25.7745C7.53654 25.7745 7.83654 25.7745 8.13654 25.7745H17.5565C17.8565 25.7745 18.1565 25.7745 18.4565 25.7745C18.7065 25.7745 18.9665 25.7745 19.2165 25.7645C19.7665 25.7545 20.3265 25.7145 20.8665 25.6145C21.4165 25.5145 21.9365 25.3545 22.4365 25.0945C22.9265 24.8445 23.3865 24.5145 23.7765 24.1245C24.1665 23.7345 24.4965 23.2845 24.7465 22.7845C25.0065 22.2845 25.1665 21.7645 25.2665 21.2145C25.3665 20.6645 25.3965 20.1145 25.4165 19.5645C25.4265 19.3145 25.4265 19.0545 25.4265 18.8045C25.4265 18.5045 25.4265 18.2045 25.4265 17.9045V8.4845Z" fill="url(#paint0_linear_8_155)"/>
<path fill-rule="evenodd" clip-rule="evenodd" d="M18.0566 4.45449C17.9966 4.46449 17.4566 4.55449 17.3866 4.56449L9.90655 6.08449C9.70655 6.12449 9.55655 6.19449 9.43655 6.29449C9.29655 6.41449 9.21655 6.58449 9.18655 6.77449C9.18655 6.82449 9.17655 6.90449 9.17655 7.03449C9.17655 7.03449 9.17655 14.6745 9.17655 16.3945C9.17655 16.6145 9.15655 16.8245 9.00655 17.0045C8.85655 17.1845 8.67655 17.2445 8.45655 17.2845C8.29655 17.3145 8.12655 17.3545 7.96655 17.3845C7.34655 17.5045 6.94655 17.5945 6.58655 17.7345C6.23655 17.8745 5.97655 18.0445 5.76655 18.2545C5.35655 18.6845 5.18655 19.2745 5.24655 19.8145C5.29655 20.2845 5.50655 20.7245 5.86655 21.0645C6.10655 21.2845 6.41655 21.4545 6.77655 21.5345C7.14655 21.6145 7.54655 21.5845 8.12655 21.4645C8.43655 21.4045 8.72655 21.3045 8.99655 21.1445C9.26655 20.9845 9.50655 20.7645 9.68655 20.5045C9.86655 20.2445 9.98655 19.9545 10.0565 19.6445C10.1265 19.3245 10.1365 19.0345 10.1365 18.7145V10.5945C10.1365 10.1545 10.2565 10.0445 10.6065 9.96449C10.6065 9.96449 16.8266 8.71449 17.1166 8.65449C17.5166 8.57449 17.7166 8.69449 17.7166 9.11449V14.6545C17.7166 14.8745 17.7165 15.0945 17.5665 15.2745C17.4165 15.4545 17.2366 15.5145 17.0166 15.5545C16.8566 15.5845 16.6866 15.6245 16.5266 15.6545C15.9066 15.7745 15.5066 15.8645 15.1466 16.0045C14.7966 16.1445 14.5366 16.3145 14.3266 16.5245C13.9166 16.9545 13.7366 17.5445 13.7866 18.0845C13.8366 18.5545 14.0565 18.9945 14.4265 19.3345C14.6665 19.5545 14.9765 19.7245 15.3365 19.7945C15.7065 19.8745 16.1066 19.8445 16.6866 19.7245C16.9966 19.6645 17.2866 19.5745 17.5566 19.4045C17.8266 19.2445 18.0665 19.0245 18.2465 18.7645C18.4265 18.5045 18.5466 18.2145 18.6166 17.9045C18.6866 17.5845 18.6866 17.2945 18.6866 16.9745V5.12449C18.6866 4.68449 18.4566 4.42449 18.0566 4.45449Z" fill="white"/>
<defs>
<linearGradient id="paint0_linear_8_155" x1="12.8465" y1="25.6803" x2="12.8465" y2="1.1569" gradientUnits="userSpaceOnUse">
<stop stop-color="#FA233B"/>
<stop offset="1" stop-color="#FB5C74"/>
</linearGradient>
</defs>
</svg>
