<svg width="509" height="114" viewBox="0 0 509 114" fill="none" xmlns="http://www.w3.org/2000/svg">
<path d="M159.328 18.0909C157.465 11.1216 151.976 5.63356 145.007 3.77089C132.375 0.385558 81.7228 0.385556 81.7228 0.385556C81.7228 0.385556 31.0708 0.385558 18.4388 3.77089C11.4695 5.63356 5.98013 11.1216 4.11746 18.0909C0.733462 30.7229 0.733459 57.0789 0.733459 57.0789C0.733459 57.0789 0.733462 83.4349 4.11746 96.0655C5.98013 103.035 11.4695 108.524 18.4388 110.387C31.0708 113.772 81.7228 113.772 81.7228 113.772C81.7228 113.772 132.375 113.772 145.007 110.387C151.976 108.524 157.465 103.035 159.328 96.0655C162.713 83.4349 162.713 57.0789 162.713 57.0789C162.713 57.0789 162.713 30.7229 159.328 18.0909Z" fill="#E80200"/>
<path d="M65.5247 81.3761L107.607 57.0788L65.5247 32.7814V81.3761Z" fill="white"/>
<path d="M253.801 92.4164C254.688 90.1017 255.133 86.3177 255.133 81.0657V58.9404C255.133 53.8444 254.688 50.1191 253.801 47.7631C252.912 45.4084 251.348 44.2297 249.109 44.2297C246.947 44.2297 245.421 45.4084 244.535 47.7631C243.645 50.1191 243.203 53.8444 243.203 58.9404V81.0657C243.203 86.3177 243.625 90.1017 244.476 92.4164C245.325 94.7337 246.869 95.8911 249.109 95.8911C251.348 95.8911 252.912 94.7337 253.801 92.4164ZM235.847 103.538C232.641 101.378 230.363 98.0164 229.013 93.4591C227.661 88.9044 226.985 82.8417 226.985 75.2737V64.9644C226.985 57.3191 227.756 51.1791 229.303 46.5471C230.845 41.9137 233.259 38.5351 236.541 36.4111C239.823 34.2884 244.129 33.2257 249.457 33.2257C254.708 33.2257 258.916 34.3071 262.083 36.4697C265.249 38.6311 267.565 42.0111 269.033 46.6044C270.499 51.1991 271.235 57.3191 271.235 64.9644V75.2737C271.235 82.8417 270.52 88.9244 269.092 93.5177C267.663 98.1124 265.345 101.472 262.141 103.595C258.936 105.719 254.592 106.78 249.109 106.78C243.472 106.78 239.051 105.699 235.847 103.538Z" fill="white"/>
<path d="M483.901 45.5571C483.092 46.5611 482.549 48.2024 482.28 50.4797C482.008 52.7584 481.874 56.2131 481.874 60.8464V65.9437H493.573V60.8464C493.573 56.2917 493.418 52.8357 493.11 50.4797C492.801 48.1251 492.242 46.4651 491.43 45.4997C490.62 44.5331 489.365 44.0504 487.666 44.0504C485.966 44.0504 484.712 44.5544 483.901 45.5571ZM481.874 75.4424V79.0331C481.874 83.5904 482.008 87.0077 482.28 89.2851C482.549 91.5637 483.108 93.2237 483.96 94.2664C484.809 95.3077 486.12 95.8304 487.898 95.8304C490.29 95.8304 491.932 94.9037 492.82 93.0491C493.706 91.1957 494.19 88.1077 494.268 83.7824L508.053 84.5931C508.13 85.2131 508.169 86.0624 508.169 87.1411C508.169 93.7064 506.373 98.6104 502.782 101.854C499.193 105.096 494.113 106.718 487.55 106.718C479.674 106.718 474.152 104.249 470.985 99.3051C467.817 94.3637 466.236 86.7184 466.236 76.3691V63.9744C466.236 53.3171 467.876 45.5384 471.16 40.6331C474.441 35.7304 480.06 33.2784 488.014 33.2784C493.496 33.2784 497.705 34.2824 500.64 36.2891C503.573 38.2984 505.64 41.4264 506.837 45.6717C508.034 49.9197 508.633 55.7904 508.633 63.2797V75.4424H481.874Z" fill="white"/>
<path d="M196.922 74.113L178.735 8.43298H194.605L200.975 38.2036C202.598 45.541 203.794 51.7956 204.566 56.969H205.03C205.57 53.2623 206.767 47.0463 208.621 38.3196L215.223 8.43298H231.093L212.675 74.113V105.622H196.922V74.113Z" fill="white"/>
<path d="M322.848 34.6151V105.622H310.337L308.946 96.9351H308.6C305.201 103.499 300.104 106.78 293.309 106.78C288.598 106.78 285.124 105.236 282.884 102.147C280.644 99.0591 279.525 94.2311 279.525 87.6684V34.6151H295.51V86.7404C295.51 89.9084 295.858 92.1671 296.553 93.5164C297.248 94.8697 298.405 95.5444 300.028 95.5444C301.418 95.5444 302.75 95.1204 304.024 94.2697C305.298 93.4204 306.244 92.3404 306.862 91.0271V34.6151H322.848Z" fill="white"/>
<path d="M404.842 34.6151V105.622H392.332L390.941 96.9351H390.594C387.194 103.499 382.098 106.78 375.304 106.78C370.593 106.78 367.118 105.236 364.878 102.147C362.638 99.0591 361.52 94.2311 361.52 87.6684V34.6151H377.505V86.7404C377.505 89.9084 377.852 92.1671 378.546 93.5164C379.242 94.8697 380.4 95.5444 382.022 95.5444C383.413 95.5444 384.745 95.1204 386.018 94.2697C387.293 93.4204 388.237 92.3404 388.857 91.0271V34.6151H404.842Z" fill="white"/>
<path d="M366.285 21.2932H350.416V105.623H334.778V21.2932H318.909V8.43457H366.285V21.2932Z" fill="white"/>
<path d="M443.095 74.9294C443.095 80.1041 442.882 84.1587 442.456 87.0921C442.032 90.0281 441.318 92.1134 440.314 93.3467C439.31 94.5827 437.956 95.2001 436.26 95.2001C434.947 95.2001 433.731 94.8934 432.612 94.2734C431.491 93.6561 430.584 92.7307 429.89 91.4934V51.1827C430.428 49.2534 431.355 47.6694 432.67 46.4334C433.982 45.2001 435.408 44.5801 436.955 44.5801C438.576 44.5801 439.831 45.2174 440.72 46.4907C441.607 47.7654 442.226 49.9081 442.572 52.9214C442.92 55.9321 443.095 60.2174 443.095 65.7774V74.9294ZM457.747 45.9654C456.782 41.4881 455.218 38.2441 453.056 36.2347C450.894 34.2294 447.919 33.2241 444.136 33.2241C441.202 33.2241 438.46 34.0547 435.912 35.7147C433.364 37.3747 431.395 39.5574 430.006 42.2601H429.888L429.89 4.84407H414.483V105.621H427.687L429.31 98.9027H429.658C430.892 101.296 432.744 103.188 435.218 104.579C437.687 105.968 440.43 106.664 443.443 106.664C448.846 106.664 452.824 104.173 455.372 99.1921C457.92 94.2107 459.195 86.4321 459.195 75.8507V64.6161C459.195 56.6627 458.712 50.4454 457.747 45.9654Z" fill="white"/>
</svg>
